<svg width="249" height="251" viewBox="0 0 249 251" fill="none" xmlns="http://www.w3.org/2000/svg">
<g clip-path="url(#clip0_136_94)">
<path d="M197.481 176.86C197.716 173.25 195.553 172.182 192.732 172.653C184.771 174.933 176.643 176.923 169.307 179.615C165.616 180.588 162.304 182.886 159.282 185.016C153.818 188.943 152.056 194.593 152.455 201.311C152.988 210.269 155.595 218.801 159.071 226.831C159.294 227.217 159.517 227.603 159.74 227.989C162.882 235.44 163.963 235.974 172.18 235.476C183.095 234.965 193.253 231.803 203.198 227.605C215.508 222.814 227.651 217.734 239.749 211.907C247.041 208.469 248.48 204.936 245.795 197.607C243.065 189.532 239.589 181.502 236.28 173.762C231.923 163.538 227.109 153.191 220.143 144.474C220.143 144.474 220.088 144.377 219.976 144.184C216.132 137.525 210.435 135.023 202.72 136.389C190.054 138.555 177.277 140.527 164.388 142.306C158 143.292 151.277 143.7 144.721 144.396C135.344 145.563 130.964 139.985 129.562 131.53C129.005 127.219 128.326 123.364 128.394 119.465C128.305 117.972 130.123 115.764 131.45 115.384C135.553 113.787 139.824 112.48 144.016 112.376C156.257 111.485 168.666 110.883 180.707 111.652C200.429 113.005 219.906 115.272 239.382 117.539C247.231 118.412 253.139 121.95 257.151 128.898C260.371 135.146 263.881 141.226 266.522 147.808C274.492 169.2 279.656 191.312 282.014 214.142C282.221 217.626 282.179 221.124 281.888 224.638C281.115 239.368 275.126 247.072 261.156 251.664C241.588 257.943 221.218 260.824 200.759 262.213C186.109 262.95 171.582 263.23 156.922 261.271C143.923 259.511 140.88 256.25 140.248 243.103C139.117 219.05 137.986 194.996 137.144 170.775C136.666 165.26 138.897 162.428 144.617 160.284C159.123 154.611 174.554 151.879 189.739 150.061C196.295 149.364 202.728 149.124 208.993 148.595C214.679 148.4 219.172 150.825 221.846 155.458C228.577 167.786 231.45 180.796 231.213 194.445C231.479 198.924 228.959 201.923 225.19 204.099C214.508 211.038 202.399 214.169 189.956 216.72C185.809 217.571 181.494 218.132 177.179 218.693C173.916 219.29 171.449 218.141 169.777 215.245C165.264 207.428 162.824 199.185 161.254 190.441C160.954 187.912 162.526 186.618 164.723 185.736C174.646 182.838 184.722 179.98 194.95 177.163C195.697 177.118 196.734 176.905 197.481 176.86Z" fill="#FFB41A" fill-opacity="0.7"/>
</g>
<defs>
<clipPath id="clip0_136_94">
<rect width="268.083" height="239.153" fill="white" transform="translate(207.112) rotate(60)"/>
</clipPath>
</defs>
</svg>
